<svg xmlns="http://www.w3.org/2000/svg" viewBox="0 0 620 160" fill="none">
  <!-- Icon on Left -->
  <g transform="translate(10, 10) scale(0.7)">
    <circle cx="100" cy="100" r="98" fill="#25184B" />
    <path d="M 136 42 A 80 80 0 0 1 162 82" stroke="#206B6B" stroke-width="9.5" stroke-linecap="round" fill="none" />
    <path d="M 130 54 A 62 62 0 0 1 149 85" stroke="#1AA397" stroke-width="9.5" stroke-linecap="round" fill="none" />
    <path d="M 124 67 A 44 44 0 0 1 137 89" stroke="#36EED6" stroke-width="9.5" stroke-linecap="round" fill="none" />
    <path d="M 64 70 C 64 63 68 59 75 59 L 84 59 C 88 59 92 62 93 66 L 98 82 C 99 86 97 90 93 92 L 87 96 C 93 107 103 117 114 123 L 118 117 C 120 113 124 111 128 112 L 144 117 C 148 118 151 122 151 126 L 151 135 C 151 142 147 146 140 146 C 98 146 64 112 64 70 Z" fill="#FFB81C" />
  </g>

  <!-- Brand Typography -->
  <text x="170" y="72" font-family="system-ui, -apple-system, BlinkMacSystemFont, 'Segoe UI', Roboto, sans-serif" font-weight="900" font-size="48" fill="#FFFFFF" letter-spacing="1">
    Quik<tspan fill="#38BDF8">Talks</tspan>
  </text>

  <!-- Tagline -->
  <text x="172" y="112" font-family="system-ui, -apple-system, BlinkMacSystemFont, 'Segoe UI', Roboto, sans-serif" font-weight="600" font-size="20" fill="#FBBF24" letter-spacing="0.5">
    No camera, no sign-up - just talk!
  </text>
</svg>
